<svg xmlns="http://www.w3.org/2000/svg" width="139" height="40" viewBox="0 0 139 40">
  <path fill="#ffffff" d="M14.2 4.1c-2.1 3-4.3 7.2-6.5 12.2 1.6-.9 3-2.2 4.3-4a21 21 0 0 0 2.8-5.5c.4-1 .6-2 .6-3v-1l-1.2 1.3ZM3.1 31.7c-.4 2.5-.5 4.3-.3 5.3a8.6 8.6 0 0 0 2-3 19.2 19.2 0 0 0 1.4-8c0-1.3-.3-2.6-.7-4A68 68 0 0 0 3 31.8ZM.7 39.1C0 38-.3 35.4.4 31.4A71 71 0 0 1 12 2.5a7 7 0 0 1 2-2c1-.6 1.8-.7 2.6-.2 1 .5 1.5 1.5 1.6 3 0 1.2-.2 2.7-.8 4.4a22 22 0 0 1-7 10.2l-2.9 1.5c.3.2.6.6.8 1 .4.5.7 1.2 1 1.9l1.2 2.2c.4.5.7.8 1 .8.2 0 .6-.1 1-.4.7-.5 1.4-1.3 2.3-2.5.2-.3.5-.5.9-.5s.7 0 1 .2c.3.3.5.6.5 1 .1.3 0 .6-.2 1-2 2.8-4 4-5.8 4-.8-.1-1.5-.5-2.2-1.2 0 .8 0 1.8-.2 2.8-.4 2.9-1.3 5.4-2.7 7.5C5 39.1 3.7 40 2.4 40a2 2 0 0 1-1.7-.9Z"/>
  <path fill="#ffffff" d="M19.6 29.1c-.5-.6-.6-1.5-.5-2.5.1-1 .5-2.2 1.2-3.6a7 7 0 0 0 1-3c-.2-.7-.7-1.3-1.7-2a306 306 0 0 0-2.8 6.3c-.2.4-.5.6-.8.7a1.3 1.3 0 0 1-1.8-.8v-1c.7-1.2 1.7-3.5 3.2-7l-.3-.5c-.3-.8-.2-1.5.2-2.2a2 2 0 0 1 1-1 2 2 0 0 1 1.5 0c.7.3 1 1 1 2l-.1 1c2 1.2 3 2.5 3.3 4 .2 1-.2 2.7-1.2 4.7-.8 1.7-1.1 2.8-1 3.4h.6c1 0 2.2-.6 3.4-1.6a14 14 0 0 0 3.2-3.6c.2-.4.5-.6.8-.7.4 0 .8 0 1 .2.4.2.6.4.7.8.1.4 0 .7-.1 1a14 14 0 0 1-4 4.4 9 9 0 0 1-4.8 2.2h-.4c-1.2 0-2-.4-2.6-1.2Z"/>
  <path fill="#ffffff" d="M36 18.1c-.8.8-1.1 1.7-.8 2.7a4 4 0 0 0 2.2 2.6c1.1-1.8 1.6-3.4 1.3-4.9-.1-.7-.4-1.1-.7-1.2h-.3c-.4 0-1 .2-1.6.8ZM31 25c-.3 1.3-.3 2.2.1 2.7l.9.1a8.4 8.4 0 0 0 3.4-2l.3-.3a6.5 6.5 0 0 1-3-3.8c-.8 1-1.4 2.1-1.7 3.3Zm-2 4.5c-1-1.2-1.3-3-.6-5.2a12 12 0 0 1 3.4-5.7c.3-.2.6-.4 1-.3.3-.9.9-1.6 1.5-2.2 1.6-1.4 3.1-1.9 4.6-1.4 1.4.5 2.3 1.6 2.6 3.4a8.5 8.5 0 0 1-1 5.5 5 5 0 0 0 2.5-1.8c.3-.3.6-.5 1-.5.3 0 .6 0 1 .3.2.2.4.5.5.9 0 .4 0 .7-.3 1a7.9 7.9 0 0 1-3.5 2.6c-1 .4-2 .6-3.1.4l-1.8 1.7a11 11 0 0 1-4.3 2.3h-.9c-1 0-1.9-.3-2.5-1Z"/>
  <path fill="#ffffff" d="M42.8 29.4c-.7-.4-1-1-.7-1.7l.6-1.7a63.7 63.7 0 0 0 2.4-8.8c.3-.2.6-.3 1-.3a1.4 1.4 0 0 1 1.3 1.5l-.5 2.6 2.2-2.4c1.7-1.4 3.2-2.1 4.6-2.1 1.7 0 2.8.5 3.5 1.4.5.8.7 1.9.4 3.2 0 .5-.4 1.5-.9 3a37.2 37.2 0 0 0-.7 2.5c.3 0 .7 0 1.2-.2 1-.2 2-1.1 3-2.6.5-.8 1-1.7 1.3-2.5 0-.3.3-.6.7-.7a1 1 0 0 1 1 0c.4 0 .6.3.8.6v1.1l-.2.4a20.3 20.3 0 0 1-1.4 2.5c-1.3 2.1-2.8 3.4-4.5 3.9-2 .4-3.3.2-4-.6-.7-.7-.9-1.6-.6-2.8l.8-2.6a15.5 15.5 0 0 0 1-3.2l-.1-.3v-.1c-.2-.2-.6-.3-1.3-.3-1.9 0-5 3.3-9.2 9.7a1.3 1.3 0 0 1-1.7.5Z"/>
  <path fill="#ffffff" d="M74.1 21.7c.3.1.6.4.7.7.2.4.2.7 0 1-.8 2-2 3.6-3.9 5a9.8 9.8 0 0 1-5.3 2.6h-.4a4 4 0 0 1-3.7-2c-.8-1.3-1-3-.5-5.4.2-1.6.7-3.3 1.5-5.3h-.4c-.7-.2-1-.6-1-1.4l.2-.7.5-.4.5-.1h.6l.6-.1c1.7-4 3.2-7 4.5-8.6.5-.6 1.1-1.1 1.8-1.5.7-.4 1.4-.4 2 0 .6.5.8 1 .6 2l-.7 1.3-4.1 6.8h4.2c.3-.1.7 0 1 .2l.5 1c0 .3-.1.7-.4 1a2 2 0 0 1-.9.5h-.7a88.7 88.7 0 0 1-5.3.1h-.6c-.9 2.3-1.5 4.2-1.7 5.7-.3 1.7-.3 2.8 0 3.3.4.6 1 .9 1.7.8 1.2 0 2.5-.7 3.9-2a9 9 0 0 0 3-3.8c.2-.3.4-.6.8-.7a1 1 0 0 1 1 0Z"/>
  <path fill="#ffffff" d="M75.2 35c-.7.7-1.1 1.3-1.2 1.8v.2c.1.1.3.2.4.1 1-.3 2.2-1.7 3.6-4.3a11 11 0 0 0-2.8 2.2Zm4.4-16.7c-1.2 1-2.4 2.1-3.7 3.7a8.4 8.4 0 0 0-2 4.1c0 .5.1.8.4 1.2.2.2.6.4 1 .3.8 0 1.8-.4 3-1.3 1.1-1 2.3-2 3.4-3.3v-.6c.5-1.8 1.2-2.7 2.3-2.8h.4c-.6-.4-.9-.9-.8-1.5.1-.4 0-.6-.1-.7l-.9-.2c-1 0-2 .4-3 1.1Zm-7.4 20.8a3 3 0 0 1-.9-2.7c.2-1.1.9-2.4 2.2-3.6 1-1.1 2.6-2.1 4.5-3.1l1.8-.9.1-.2.1-.3a8.8 8.8 0 0 1-4.6 2c-1.2.2-2.3-.3-3.1-1.2-.9-.8-1.2-2-1-3.2 0-1.7 1-3.5 2.5-5.6 1.4-1.8 2.8-3.2 4.2-4.2a8.5 8.5 0 0 1 3.7-1.6c1.3-.2 2.4 0 3.3.6 1.2.7 1.6 2 1.3 3.5 0 .4-.2.6-.5.8-.3.2-.6.3-1 .3.3 0 .6.3.7.6.5.9.2 2-1 3.5l-.3.4a68 68 0 0 1-.9 2.9 12 12 0 0 0 4.5-4.9c.2-.3.5-.5.8-.6h1c.4.3.6.5.7 1v1a15.2 15.2 0 0 1-8.4 7.3 38.1 38.1 0 0 1-3.8 6.7c-1 1.2-2 1.9-2.9 2.1l-1 .2a3 3 0 0 1-2-.8Z"/>
  <path fill="#ffffff" d="M88.8 28.6c-.7-1.1-.8-2.9-.3-5.2.5-1.8 1.3-3.8 2.4-6.2.2-.3.5-.6.9-.7h1c.3.2.6.5.7.8v1.1c-2.3 4.6-3 7.5-2.4 8.8.2.2.3.3.5.3.9 0 2.1-1 3.7-3s2.9-4 3.7-6c.2-.3.4-.5.8-.7h1c.4.2.6.4.8.8v1a20 20 0 0 0-1.7 5.7c-.2 1-.1 1.6.1 1.8.4.1 1-.1 1.7-.8 1.2-.9 2.5-2.4 4-4.5.2-.3.4-.5.8-.6.4 0 .7 0 1 .3.4.2.6.5.6.8.1.4 0 .7-.2 1a22.1 22.1 0 0 1-4.7 5.3c-1.7 1.3-3.2 1.6-4.5 1-1-.5-1.5-1.5-1.6-3-2 2.4-3.7 3.6-5.3 3.7h-.3c-1.1 0-2-.6-2.7-1.7Z"/>
  <path fill="#ffffff" d="M108.5 35.8a13 13 0 0 0 2.3-3l-.6.4a9 9 0 0 0-2.9 2.3c-.4.6-.7 1.2-.7 1.6h.1c.5-.1 1-.5 1.8-1.3Zm-3.6 3.4c-.8-.6-1.1-1.4-1-2.5.1-1 .6-2.1 1.6-3.3a10.7 10.7 0 0 1 4.2-3 33.3 33.3 0 0 1 2.9-1.3l.9-2.6-.7.5a8.5 8.5 0 0 1-4.8 1.5c-1.1 0-1.9-.5-2.4-1.5-.6-1.2-.6-2.8 0-4.7a15 15 0 0 1 2.7-5.5c.3-.3.6-.5 1-.5s.7 0 1 .3a1.4 1.4 0 0 1 .2 2 10 10 0 0 0-2.4 4.8c-.3 1.2-.3 2 0 2.4 2.2 0 4.4-1.6 6.7-4.6l.1-1.2c.2-1.8.8-2.8 1.8-3 .7-.2 1.2 0 1.6.6.4.5.5 1.2.3 2.1-.2.8-.6 1.6-1.2 2.5a48 48 0 0 1-1.3 4.9c2.1-1.3 3.6-3 4.5-5 .1-.3.4-.6.8-.7h1c.3.2.6.4.7.8.2.4.1.7 0 1a16.5 16.5 0 0 1-8.3 7.9 22.2 22.2 0 0 1-3.8 6.1l-1.8 1.7a5.3 5.3 0 0 1-2.6 1c-.7 0-1.2-.3-1.7-.7Z"/>
  <path fill="#ffffff" d="M121 28.5a1.3 1.3 0 0 1 .5-1.8c.4-.2.7-.2 1-.1.5.1.7.3.9.7l.3.5.8.4 1.5.2c1 0 1.8-.3 2.1-.8.6-.8.7-2.3.4-4.3l-1-3.8-1.4 2a38 38 0 0 1-4.2 4.3c-.3.2-.6.4-1 .4-.3 0-.6-.2-.9-.5-.3-.3-.4-.6-.4-1 0-.3.2-.7.5-1a25.5 25.5 0 0 0 6.2-7.9v-.4c-.1-1 .1-1.7.7-2 .6-.5 1.2-.5 1.7 0 .6.5.7 1.4.4 2.7l.3.8c2.3 5.8 2.6 9.8 1 12.2-.9 1.4-2.4 2-4.4 2-2.4 0-4.1-.8-5-2.6Z"/>
  <path fill="#5BC9D6" d="M135.4 26c.5-.4 1-.7 1.6-.7.8 0 1.2.4 1.2 1.2 0 .5-.2 1-.6 1.5-.4.6-.8.8-1.4.8-.5 0-1 0-1.2-.4-.3-.3-.5-.6-.5-1 0-.5.3-1 .9-1.4Z"/>
</svg>
