<svg width="109" height="28" viewBox="0 0 109 28" fill="none" xmlns="http://www.w3.org/2000/svg">
<path d="M2.3314 20.6662C2.32649 20.5745 2.32401 20.4822 2.32401 20.3893V10.9961L0.683622 13.8374C-0.680943 16.2009 0.0628275 19.2031 2.3314 20.6662Z" fill="#3368DB"></path>
<path d="M10.6664 25.4856H20.455C20.5659 25.4856 20.6759 25.4821 20.785 25.4751C19.3712 27.894 16.2668 28.719 13.8374 27.3164L10.6664 25.4856Z" fill="#FECE00"></path>
<path d="M25.5513 17.2199L27.3164 14.1626C28.7044 11.7585 27.911 8.69365 25.5504 7.25984C25.551 7.29137 25.5513 7.32296 25.5513 7.35462V17.2199Z" fill="#FA4E1D"></path>
<path d="M16.8901 2.25834L14.1626 0.683623C11.8246 -0.666217 8.86165 0.0470189 7.38174 2.25849C7.39457 2.25839 7.40742 2.25834 7.42028 2.25834H16.8901Z" fill="#FFB3DA"></path>
<path fill-rule="evenodd" clip-rule="evenodd" d="M2.32302 7.35434C2.32302 4.53974 4.6047 2.25806 7.4193 2.25806H20.454C23.2686 2.25806 25.5503 4.53974 25.5503 7.35434C25.8374 12.2795 25.9249 15.1297 25.5503 20.389C25.5503 23.2036 23.2686 25.4853 20.454 25.4853H7.4193C4.6047 25.4853 2.32302 23.2036 2.32302 20.389C1.94628 15.2982 1.94514 12.4456 2.32302 7.35434ZM12.3942 17.3326V14.924L9.81363 18.2685C9.75132 18.3492 9.68279 18.4223 9.60922 18.4877C9.31917 18.8262 8.88852 19.0407 8.40777 19.0407C7.53434 19.0407 6.82629 18.3327 6.82629 17.4592V10.5008C6.82629 9.62733 7.53434 8.91928 8.40777 8.91928C9.28119 8.91928 9.98924 9.62733 9.98924 10.5008V12.8307L12.6209 9.42C12.9144 9.03958 13.3461 8.82863 13.7909 8.80327C13.8515 8.79623 13.9132 8.7926 13.9756 8.7926C14.8491 8.7926 15.5571 9.50065 15.5571 10.3741V12.9164L18.0597 9.67293C18.116 9.60003 18.1773 9.53335 18.2428 9.47301C18.5284 9.06181 19.0041 8.7926 19.5427 8.7926C20.4161 8.7926 21.1241 9.50065 21.1241 10.3741V17.3326C21.1241 18.206 20.4161 18.914 19.5427 18.914C18.6692 18.914 17.9612 18.206 17.9612 17.3326V15.0108L15.2525 18.5214C14.7156 19.2172 13.7162 19.3461 13.0204 18.8092C12.598 18.4833 12.3846 17.987 12.4021 17.4917C12.3968 17.4394 12.3942 17.3863 12.3942 17.3326Z" fill="currentColor"></path>
<path d="M35 19.5043V9.28835H38.0936V10.4212C38.8635 9.47372 39.8604 9 41.084 9C42.3765 9 43.3183 9.51492 43.9095 10.5448C44.6657 9.51492 45.7381 9 47.1268 9C48.158 9 48.9692 9.33641 49.5604 10.0092C50.1654 10.6821 50.4679 11.5815 50.4679 12.7074V19.5043H47.3743V13.3253C47.3743 12.2817 46.8862 11.76 45.91 11.76C45.4288 11.76 45.0369 11.9316 44.7344 12.2749C44.432 12.6182 44.2807 13.0987 44.2807 13.7166V19.5043H41.1872V13.3871C41.1872 12.8928 41.0565 12.5014 40.7953 12.2131C40.5478 11.911 40.1903 11.76 39.7229 11.76C39.2554 11.76 38.8635 11.9385 38.5473 12.2955C38.2448 12.6387 38.0936 13.1125 38.0936 13.7166V19.5043H35Z" fill="currentColor"></path>
<path d="M50.9504 14.3963C50.9504 12.8173 51.466 11.5265 52.4972 10.5242C53.5422 9.50805 54.8483 9 56.4158 9C57.9007 9 59.1106 9.48746 60.0456 10.4624C60.9805 11.4373 61.448 12.6525 61.448 14.108V15.1584H53.879C53.9615 15.7626 54.2296 16.25 54.6834 16.6208C55.1371 16.9778 55.687 17.1563 56.3333 17.1563C57.447 17.1563 58.3132 16.6208 58.9319 15.5497L61.1592 16.8061C60.6643 17.8085 60.0181 18.5569 59.2206 19.0512C58.4369 19.5455 57.4332 19.7927 56.2095 19.7927C54.7933 19.8201 53.5559 19.3121 52.4972 18.2685C51.4385 17.2249 50.9229 15.9342 50.9504 14.3963ZM54.0028 12.9958H58.6638C58.54 12.4877 58.2719 12.0964 57.8594 11.8217C57.447 11.5334 56.9451 11.3892 56.3539 11.3892C55.7902 11.3892 55.3021 11.5334 54.8896 11.8217C54.4771 12.1101 54.1815 12.5014 54.0028 12.9958Z" fill="currentColor"></path>
<path d="M62.0511 19.5043V9.28835H65.1446V10.4212C65.9146 9.47372 66.9114 9 68.1351 9C69.4275 9 70.3693 9.51492 70.9606 10.5448C71.7168 9.51492 72.7892 9 74.1779 9C75.2091 9 76.0203 9.33641 76.6115 10.0092C77.2164 10.6821 77.5189 11.5815 77.5189 12.7074V19.5043H74.4254V13.3253C74.4254 12.2817 73.9373 11.76 72.9611 11.76C72.4798 11.76 72.088 11.9316 71.7855 12.2749C71.483 12.6182 71.3318 13.0987 71.3318 13.7166V19.5043H68.2382V13.3871C68.2382 12.8928 68.1076 12.5014 67.8464 12.2131C67.5989 11.911 67.2414 11.76 66.7739 11.76C66.3064 11.76 65.9146 11.9385 65.5984 12.2955C65.2959 12.6387 65.1446 13.1125 65.1446 13.7166V19.5043H62.0511Z" fill="currentColor"></path>
<path d="M79.6514 18.3509C78.5515 17.376 78.0015 16.0578 78.0015 14.3963C78.0015 12.7349 78.5515 11.4235 79.6514 10.4624C80.7651 9.48746 82.1056 9 83.6731 9C85.2405 9 86.5741 9.48746 87.6741 10.4624C88.7878 11.4235 89.3446 12.7349 89.3446 14.3963C89.3446 16.0578 88.7878 17.376 87.6741 18.3509C86.5741 19.3121 85.2405 19.7927 83.6731 19.7927C82.1056 19.7927 80.7651 19.3121 79.6514 18.3509ZM85.4673 16.1882C85.9623 15.7351 86.2098 15.1378 86.2098 14.3963C86.2098 13.6549 85.9623 13.0575 85.4673 12.6044C84.9861 12.1513 84.388 11.9247 83.6731 11.9247C82.9581 11.9247 82.3531 12.1513 81.8582 12.6044C81.3769 13.0575 81.1363 13.6549 81.1363 14.3963C81.1363 15.1378 81.3769 15.7351 81.8582 16.1882C82.3531 16.6414 82.9581 16.8679 83.6731 16.8679C84.388 16.8679 84.9861 16.6414 85.4673 16.1882Z" fill="currentColor"></path>
<path d="M89.9077 19.5043V9.28835H93.0013V10.5859C93.6475 9.52865 94.5962 9 95.8474 9C96.2049 9 96.528 9.04806 96.8167 9.14418L96.3011 12.0483C96.0124 11.9659 95.7305 11.9247 95.4555 11.9247C94.6856 11.9247 94.0806 12.1925 93.6407 12.728C93.2144 13.2498 93.0013 13.9638 93.0013 14.8701V19.5043H89.9077Z" fill="currentColor"></path>
<path d="M98.1062 23.6031L98.6218 20.8431C98.993 21.0079 99.3092 21.0903 99.5705 21.0903C100.065 21.0903 100.409 20.8294 100.602 20.3076L100.911 19.4837L96.6007 9.28835H100.107L102.478 15.2408L104.665 9.28835H108.109L103.427 20.9873C103.001 22.0446 102.513 22.7861 101.963 23.2117C101.413 23.6374 100.684 23.8502 99.7767 23.8502C99.0343 23.8502 98.4774 23.7678 98.1062 23.6031Z" fill="currentColor"></path>
</svg>
