<svg xmlns="http://www.w3.org/2000/svg" width="130" height="24" viewBox="0 0 130 24" fill="none" class="header__logo"><path d="M101.24 9.57H99c-1.1 0-1.67-.53-1.67-1.14 0-.75.57-1.41 1.67-1.41.73 0 1.35.44 1.58 1.08.07.17.25.28.44.28h6.5c.27 0 .48-.22.46-.48-.4-4.42-4.26-7.9-8.98-7.9-4.88 0-8.89 3.76-9 8.43.05 3.23 2.66 6 6.76 6H99c1.1 0 1.67.53 1.67 1.14 0 .75-.57 1.41-1.67 1.41-.73 0-1.35-.44-1.58-1.08a.47.47 0 0 0-.44-.28h-6.5a.45.45 0 0 0-.46.48c.4 4.42 4.26 7.9 8.98 7.9 4.88 0 8.89-3.76 9-8.43-.05-3.2-2.66-6-6.76-6ZM53.57 0H41.1A3.17 3.17 0 0 0 38 3.22v17.56c0 1.79 1.4 3.22 3.11 3.22h12.46c.24 0 .43-.2.43-.45v-6.27c0-.24-.2-.44-.43-.44H44.9a.44.44 0 0 1-.44-.45v-1.57c0-.25.2-.45.44-.45h7.05c.23 0 .43-.2.43-.44v-3.88c0-.24-.2-.45-.43-.45H44.9a.44.44 0 0 1-.44-.44V7.59c0-.25.2-.45.44-.45h8.67c.24 0 .43-.2.43-.45V.43c0-.23-.2-.43-.43-.43ZM69.59 0H66.1C59.97 0 55 5.37 55 12s4.97 12 11.1 12h3.49c.22 0 .41-.2.41-.45v-6.27c0-.24-.19-.44-.41-.44h-3.46a4.72 4.72 0 0 1-4.6-4.68c-.09-2.76 1.94-5.04 4.5-5.04h3.56c.22 0 .41-.2.41-.45V.4a.4.4 0 0 0-.41-.4ZM36.54.02h-6.07a.45.45 0 0 0-.44.4l-1.3 16.1a.41.41 0 0 1-.42.37.43.43 0 0 1-.42-.37L26.86 3.2A3.54 3.54 0 0 0 23.36 0h-5.7c-1.8 0-3.32 1.4-3.5 3.21l-1.03 13.3a.41.41 0 0 1-.42.38.43.43 0 0 1-.41-.37L11 .42a.45.45 0 0 0-.44-.4H4.44A.44.44 0 0 0 4 .51l1.63 17.1a7 7 0 0 0 7 6.39 7 7 0 0 0 7-6.4l.72-10.56c.02-.2.28-.2.3 0l.73 10.56a7.02 7.02 0 0 0 14 0L37 .5c0-.26-.22-.48-.46-.48ZM80.3 0C75.64.11 72 4.12 72 8.9v14.67c0 .24.2.44.43.44h6.05c.24 0 .43-.2.43-.44V16.3c0-.24.2-.44.43-.44h2.32c.23 0 .43.2.43.44v7.25c0 .24.2.44.43.44h6.05c.24 0 .43-.2.43-.44V8.73c0-4.9-3.93-8.86-8.7-8.73Zm1.79 10.2c0 .24-.2.44-.43.44h-2.32a.44.44 0 0 1-.43-.44V8.78c0-.82.59-1.58 1.38-1.69a1.6 1.6 0 0 1 1.8 1.62v1.49ZM117.3 0c-4.65.11-8.3 4.12-8.3 8.89v14.67c0 .24.2.44.43.44h6.05c.24 0 .43-.2.43-.44V16.3c0-.24.2-.44.43-.44h2.32c.23 0 .43.2.43.44v7.25c0 .24.2.44.43.44h6.05c.24 0 .43-.2.43-.44V8.73c0-4.9-3.93-8.86-8.7-8.73Zm1.79 10.2c0 .24-.2.44-.43.44h-2.32a.44.44 0 0 1-.43-.44V8.78c0-.82.59-1.58 1.39-1.69a1.6 1.6 0 0 1 1.79 1.62v1.49Z" fill="white"></path></svg>
