<svg version="1.2" baseProfile="tiny" xmlns="http://www.w3.org/2000/svg" viewBox="0 0 506 89" overflow="visible" xml:space="preserve">
	<path fill="#FFF" d="M72.6 50c.3-1.7 1.1-3.2 2.4-4.3.9-.8 4.3-3.7 4.4-3.8 5.5-4.8 14.8-20.1 20.3-29.6 1.6-2.7-1.1-5.9-4.1-4.8-10.3 3.8-27 10.4-32.5 15.1-.1.1-3.5 3-4.4 3.8-1.3 1.1-2.9 1.7-4.6 1.7-14.9.2-19.3 6-19.3 6l1.9 2s8.6-1.2 13.5 4.4L46.1 44l2.5 2.9-2.9 2.5 5.3 6.4.6-.7-2.5-6.7 6.2 7.1 1.5-1.2-1.8-7.9s3.1 3.3 4.9 5.5c4.9 5.7 2.2 14.1 2.2 14.1l1.7 2.2c.1 0 6.5-3.5 8.8-18.2zm.4-15.9c-1 .8-2.5.8-3.3-.2s-.8-2.5.2-3.3l9.7-8.2c1-.9 2.5-.8 3.3.2s.8 2.5-.2 3.3L73 34.1z" />
	<path fill="#FFF" d="M44.7-.3C20-.3 0 19.7 0 44.4s20 44.7 44.7 44.7S89.4 69 89.4 44.4 69.3-.3 44.7-.3zm2.2 85.4c-14.5.7-27.4-6.1-35.3-16.9-.4-.6.3-1.2.8-.8 9.9 6.8 25.6 4.8 35.8-13.7-51.1 14.2-44.8-50.6-3.5-50 14.5.2 27.2 7.6 34.4 19l.1-.1c.8-.7 2.1-.8 3-.2 1.2.9 1.3 2.7.2 3.7l-1 .8c2.8 5.8 4.1 12.1 4 18.5-.5 21.1-17.4 38.5-38.5 39.7zM129.7 46.4H144c1.3 0 2.4 1 2.4 2.5s-1.1 2.5-2.4 2.5h-14.3v16.9h16.6c1.3 0 2.4.9 2.4 2.5s-1.1 2.5-2.4 2.5h-19.4c-1.6 0-2.8-1.1-2.8-2.5V27.5c0-1.5 1.2-2.5 2.8-2.5h19.4c1.3 0 2.4 1 2.4 2.5s-1.1 2.5-2.4 2.5h-16.6v16.4zm40.6 24.4c0 1.6-1.1 2.6-2.7 2.6s-2.7-1-2.7-2.6V25c0-1.6 1.1-2.5 2.7-2.5s2.7 1 2.7 2.5v45.8zM193 57.1v4.3c0 4.4 3.3 7.5 7.3 7.5 2.6 0 4.5-1.1 5.9-1.9.8-.5 1.3-.8 2.1-.8 1.3 0 2.3 1.1 2.3 2.5 0 1.1-.6 1.8-1.8 2.6-2.1 1.3-4.9 2.5-8.6 2.5-7.3 0-12.7-5.2-12.7-12.3V49.6c0-7.2 6.1-12.1 12.4-12.1 6.3 0 12.4 5 12.4 12.1v4.7c0 1.6-1.1 2.8-2.8 2.8H193zm14-7.4c0-4-3.1-7.3-7-7.3s-7 3-7 7.3v3h14v-3zm29 21.4-10.4-29.6c-.1-.4-.2-.7-.2-1.1 0-1.3 1.2-2.4 2.8-2.4 1.4 0 2.2.7 2.6 1.8l7.4 23 .9 2.8.8-2.8 7.4-23c.4-1.1 1.2-1.8 2.6-1.8 1.6 0 2.8 1.1 2.8 2.4 0 .4-.1.6-.2 1.1l-10.4 29.6c-.5 1.3-1.4 2.3-3.1 2.3-1.6-.1-2.5-1-3-2.3zm35.7-14v4.3c0 4.4 3.3 7.5 7.3 7.5 2.5 0 4.5-1.1 5.9-1.9.8-.5 1.4-.8 2.1-.8 1.3 0 2.3 1.1 2.3 2.5 0 1.1-.6 1.8-1.8 2.6-2.1 1.3-4.9 2.5-8.6 2.5-7.3 0-12.7-5.2-12.7-12.3V49.6c0-7.2 6.1-12.1 12.4-12.1s12.4 5 12.4 12.1v4.7c0 1.6-1.1 2.8-2.8 2.8h-16.5zm14.1-7.4c0-4-3.1-7.3-7-7.3s-7 3-7 7.3v3h14.1l-.1-3zm27.1 21.1c0 1.6-1.1 2.5-2.7 2.5s-2.7-1-2.7-2.5V40.1c0-1.3.9-2.1 2.1-2.1 1 0 1.6.6 2.2 1.3.5.6.9 1.1 1.6 1.1.5 0 1-.2 1.8-.7 1.6-1 3.7-2.1 6.7-2.1 5.4 0 10.6 5 10.6 12.3v21c0 1.6-1.1 2.5-2.7 2.5s-2.7-1-2.7-2.5v-21c0-4.2-3-7.4-7.1-7.4s-7.1 3.2-7.1 7.5v20.8zm53.3 2.4c-1.6 0-2.8-1.1-2.8-2.5V27.4c0-1.6 1.1-2.6 2.8-2.6s2.8 1 2.8 2.6v40.9h16c1.4 0 2.3.8 2.3 2.5 0 1.6-1 2.5-2.3 2.5-.1-.1-18.8-.1-18.8-.1zm57.5-1.8c0 1.3-.9 2.1-2.2 2.1-.9 0-1.6-.7-2.2-1.4-.5-.6-.8-1-1.4-1-.7 0-1.3.4-2 .8-1.6.9-3.2 1.8-5.7 1.8-6.4 0-11.2-4.3-11.2-10.8s5.5-10.2 12.5-10.2h6.8v-3c0-3.9-2.9-7.4-7-7.4-2.1 0-3.9.8-5.5 1.6-.6.3-1.4.7-2.1.7-1.4 0-2.4-1.1-2.4-2.4 0-1.2.9-2 1.9-2.5 1.9-1 5-2.1 8.1-2.1 6.7 0 12.3 5.2 12.3 12.2l.1 21.6zm-12.2-14.3c-4.1 0-7.2 2-7.2 5.8s3 6 7 6 7-2.3 7-6.2v-5.6h-6.8zm29.9 14.2V25.1c0-1.6 1.1-2.5 2.7-2.5s2.7 1 2.7 2.5v14.6c0 .4.3.8.6.8s.8-.2 1.1-.5c1.8-1.3 4-2.5 6.5-2.5 6.5 0 11.4 5 11.4 12.3v11.6c0 7.2-5 12.3-11.2 12.3-2.7 0-4.6-1.1-6-2-.8-.5-1.4-.8-1.9-.8s-1.1.4-1.5.9c-.6.7-1.4 1.4-2.3 1.4-1 .1-2.1-.6-2.1-1.9zm19.8-21.4c0-4.1-3.2-7.5-7.2-7.5s-7.2 3.3-7.2 7.5v11.6c0 4 3.2 7.5 7.2 7.5 4.2 0 7.2-3.7 7.2-7.5V49.9zm26.2-1.8c0 3.1 4 4.3 7 5.2 4.5 1.3 9.7 3.3 9.7 9.9 0 6-4.7 10.6-11.6 10.6-3.1 0-5.6-.7-8.3-2.1-1.4-.7-2.1-1.5-2.1-2.8 0-1.5 1.2-2.4 2.5-2.4.7 0 1.5.3 2.3.8 1.2.6 3.5 1.6 5.5 1.6 3.8 0 6.2-2.5 6.2-5.6 0-3.3-3.2-4.6-7-5.7-3.8-1.1-9.7-3.3-9.7-9.6 0-5.9 5.4-10.6 11.5-10.6 3 0 5.8.9 7.7 1.9 1.1.6 1.8 1.3 1.8 2.5 0 1.3-1.1 2.3-2.4 2.3-.6 0-1.1-.3-1.8-.6-1.7-.8-3.1-1.4-5.4-1.4-3 .2-5.9 2.8-5.9 6z" />
</svg>
